<?xml version="1.0"?>
<!DOCTYPE svg PUBLIC "-//W3C//DTD SVG 1.1//EN" "http://www.w3.org/Graphics/SVG/1.1/DTD/svg11.dtd">
<svg width="183.67827323930211mm" height="62.345231676964474mm" viewBox="0 0 183.67827323930211 62.345231676964474" xmlns="http://www.w3.org/2000/svg" version="1.1">
<g id="Sketch" transform="translate(91.781699,41.842465) scale(1,-1)">
<path id="Sketch_w0000"  d="M -16.999999999999996 -0.5720843654360817 A 2 2 0 0 1 -15 1.42792L -15.0 35.13277196383942 L 15.0 35.13277196383942 L 15.0 1.4279156345639175 A 2 2 0 0 1 17 -0.572084L 27.970577729613193 -0.5720843654360817 A 2 2 0 0 1 29.896 0.886984L 32.446733342158645 9.966246576839701 L 28.338488 19.906202 L 31.758492 29.824207 L 30.133993 40.04169799999998 L 41.32783818384283 40.04169799999998 L 87.64595000000001 40.04169799999998 A 2 2 0 0 0 89.6459 38.0278C 94.387749 0.255102 62.1686725 -9.879267 36.06999675 -14.945912 C 9.971320999999998 -20.012557 -10.006954000000006 -20.011478 -36.25616050000001 -15.008338749999998 C -62.505367 -10.005199499999998 -95.025505 0.0 -89.32663158928182 38.04997822762169 A 2 2 0 0 0 -87.3266 40.0417L -39.98360229209216 40.04169799999998 L -29.80155 40.04169799999998 L -31.597048 29.909708 L -28.348047 19.991701 L -32.34704509851601 9.88748587560027 L -29.900308813172348 0.9024273424530473 A 2 2 0 0 1 -27.9706 -0.572084L -16.999999999999996 -0.5720843654360817 " stroke="#000000" stroke-width="0.35 px" style="stroke-width:0.35;stroke-miterlimit:4;stroke-dasharray:none;fill:none;fill-rule: evenodd "/>
<title>b'visor_clip'</title>
</g>
</svg>