<?xml version="1.0"?>
<!DOCTYPE svg PUBLIC "-//W3C//DTD SVG 1.1//EN" "http://www.w3.org/Graphics/SVG/1.1/DTD/svg11.dtd">
<svg width="23.81098821967923mm" height="16.729907283534626mm" viewBox="0 0 23.81098821967923 16.729907283534626" xmlns="http://www.w3.org/2000/svg" version="1.1">
<g id="Sketch002" transform="translate(103.977869,-29.341383) scale(1,-1)">
<path id="Sketch002_w0000"  d="M -102.46089064966964 -38.55578615019416 L -101.40032200001507 -38.8901904203674 L -103.59096438928822 -45.837848832336604 L -82.170451452747 -44.016617278897606 A 1.93397 1.93397 0 0 1 -80.4003 -42.0896L -80.40032200001507 -42.09019042036739 L -90.40032200001507 -42.09019042036739 L -90.40032200001507 -38.8901904203674 L -83.10032200001507 -38.8901904203674 L -83.10032200001507 -39.3901904203674 L -80.40032200001507 -38.8901904203674 L -80.40032200001507 -36.94206590918028 A 0.581714 0.581714 0 0 1 -80.7779 -36.3973L -98.51825999127672 -29.74968329931624 L -99.38554788044333 -32.500301121865895 L -100.14851973698082 -32.25973107773793 L -99.30195077399407 -29.574823670756476 L -101.67029267807281 -31.02344828623004 L -103.7131098147058 -37.50227647513954 A 0.684051 0.684051 0 0 1 -103.581 -38.1517L -102.6710493687196 -39.21956370780766 L -102.46089064966964 -38.55578615019416 " stroke="#000000" stroke-width="0.35 px" style="stroke-width:0.35;stroke-miterlimit:4;stroke-dasharray:none;fill:none;fill-rule: evenodd "/>
<title>b'attachment_middle'</title>
</g>
</svg>