<?xml version="1.0"?>
<!DOCTYPE svg PUBLIC "-//W3C//DTD SVG 1.1//EN" "http://www.w3.org/Graphics/SVG/1.1/DTD/svg11.dtd">
<svg width="26.30141338188497mm" height="17.512816636664972mm" viewBox="0 0 26.30141338188497 17.512816636664972" xmlns="http://www.w3.org/2000/svg" version="1.1">
<g id="Sketch001" transform="translate(104.299764,-5.146051) scale(1,-1)">
<path id="Sketch001_w0000"  d="M -100.4421690000073 -16.192578999997284 L -99.2562080845338 -16.264817377942848 L -99.62997137504126 -22.40101072539934 L -80.15175092835915 -21.382300587802888 A 2 2 0 0 1 -78.2562 -19.385L -78.2562080845338 -19.464817377942847 L -88.2562080845338 -19.464817377942847 L -88.2562080845338 -16.264817377942848 L -80.9562080845338 -16.264817377942848 L -80.9562080845338 -16.764817377942848 L -78.2562080845338 -16.264817377942848 L -78.2562080845338 -13.322183982564628 A 1.76979 1.76979 0 0 1 -79.4954 -11.6338L -98.60823313513889 -5.626802156070978 L -98.84885759101009 -9.577212008647647 L -99.64737763510504 -9.528573143749297 L -99.39613907392565 -5.403908076614463 L -103.54152054256264 -6.727033938499555 L -104.04190747853866 -14.942048803981212 A 1.2422 1.2422 0 0 1 -103.307 -16.1523L -100.51545565025766 -17.39574974240257 L -100.4421690000073 -16.192578999997284 " stroke="#000000" stroke-width="0.35 px" style="stroke-width:0.35;stroke-miterlimit:4;stroke-dasharray:none;fill:none;fill-rule: evenodd "/>
<title>b'attachment'</title>
</g>
</svg>