<?xml version="1.0"?>
<!DOCTYPE svg PUBLIC "-//W3C//DTD SVG 1.1//EN" "http://www.w3.org/Graphics/SVG/1.1/DTD/svg11.dtd">
<svg width="163.04497775996492mm" height="61.95381429342456mm" viewBox="0 0 163.04497775996492 61.95381429342456" xmlns="http://www.w3.org/2000/svg" version="1.1">
<g id="Sketch" transform="translate(81.459636,41.624016) scale(1,-1)">
<path id="Sketch_w0000"  d="M -16.999999999999996 -0.5720843654360817 A 2 2 0 0 1 -15 1.42792L -15.0 35.13277196383942 L 15.0 35.13277196383942 L 15.0 1.4279156345639175 A 2 2 0 0 1 17 -0.572084L 27.970577729613193 -0.5720843654360817 A 2 2 0 0 1 29.896 0.886984L 32.446733342158645 9.966246576839701 L 28.338488 19.906202 L 31.758492 29.824207 L 30.133993 40.025536 L 41.32783818384283 40.025536 L 77.72046969831305 40.025536 A 2 2 0 0 0 79.7197 37.9714C 82.955048 0.01153 56.452322 -10.001053 33.2118215 -15.006805 C 9.971320999999998 -20.012557 -10.006954000000006 -20.011478 -33.22852675000001 -15.026831249999997 C -56.4500995 -10.042184499999998 -82.91497 -0.07397 -79.61396003733134 38.03117963457472 A 2 2 0 0 0 -77.614 40.0255L -39.98360229209216 40.025536 L -29.80155 40.025536 L -31.597048 29.909708 L -28.348047 19.991701 L -32.34704509851601 9.88748587560027 L -29.900308813172348 0.9024273424530473 A 2 2 0 0 1 -27.9706 -0.572084L -16.999999999999996 -0.5720843654360817 " stroke="#000000" stroke-width="0.35 px" style="stroke-width:0.35;stroke-miterlimit:4;stroke-dasharray:none;fill:none;fill-rule: evenodd "/>
<title>b'visor_clip'</title>
</g>
</svg>