<?xml version="1.0"?>
<!DOCTYPE svg PUBLIC "-//W3C//DTD SVG 1.1//EN" "http://www.w3.org/Graphics/SVG/1.1/DTD/svg11.dtd">
<svg width="23.770906116810522mm" height="16.711573706155317mm" viewBox="0 0 23.770906116810522 16.711573706155317" xmlns="http://www.w3.org/2000/svg" version="1.1">
<g id="Sketch001" transform="translate(103.980905,-5.334883) scale(1,-1)">
<path id="Sketch001_w0000"  d="M -102.46595528848655 -14.571662222535814 L -101.44304706166123 -14.896117298423778 L -103.63713457879405 -21.813408283955685 L -82.05730229779871 -19.659924975631135 A 1.79222 1.79222 0 0 1 -80.443 -17.8766L -80.44304706166125 -17.89611729842378 L -90.44304706166123 -17.89611729842378 L -90.44304706166123 -14.896117298423778 L -83.14304706166124 -14.896117298423778 L -83.14304706166124 -15.396117298423778 L -80.44304706166125 -14.896117298423778 L -80.44304706166125 -12.93487050904449 A 0.558414 0.558414 0 0 1 -80.8049 -12.4122L -98.53957446950042 -5.742350809319207 L -99.41734196316744 -8.509684894183028 L -100.17990105621112 -8.26780965854198 L -99.32352960010573 -5.5679307761692 L -101.66266576995795 -7.0258823505889145 L -103.71609821245953 -13.499730641962769 A 0.685621 0.685621 0 0 1 -103.584 -14.1525L -102.671402 -15.219866 L -102.46595528848655 -14.571662222535814 " stroke="#000000" stroke-width="0.35 px" style="stroke-width:0.35;stroke-miterlimit:4;stroke-dasharray:none;fill:none;fill-rule: evenodd "/>
<title>b'attachment'</title>
</g>
</svg>