<?xml version="1.0"?>
<!DOCTYPE svg PUBLIC "-//W3C//DTD SVG 1.1//EN" "http://www.w3.org/Graphics/SVG/1.1/DTD/svg11.dtd">
<svg width="23.730848229520063mm" height="16.71203534514044mm" viewBox="0 0 23.730848229520063 16.71203534514044" xmlns="http://www.w3.org/2000/svg" version="1.1">
<g id="Sketch001" transform="translate(103.940733,-5.334716) scale(1,-1)">
<path id="Sketch001_w0000"  d="M -102.46603648154246 -14.571918368359785 L -101.4425398510299 -14.896278511906083 L -103.634891305141 -21.81409616252545 L -82.05700704552922 -19.660126401772573 A 1.79252 1.79252 0 0 1 -80.4425 -17.8765L -80.44253985102992 -17.896278511906083 L -90.4425398510299 -17.896278511906083 L -90.4425398510299 -14.896278511906083 L -83.14253985102991 -14.896278511906083 L -83.14253985102991 -15.396278511906083 L -80.44253985102992 -14.896278511906083 L -80.44253985102992 -12.934956064125997 A 0.55869 0.55869 0 0 1 -80.8046 -12.412L -98.54135726097172 -5.74179185715957 L -99.41843126746686 -8.509339930555358 L -100.18105079956844 -8.267655323562757 L -99.32529377918512 -5.567371566983439 L -101.64790415452778 -7.0305614497892455 L -103.68209091842418 -13.449301051758892 A 0.617731 0.617731 0 0 1 -103.476 -14.1211L -102.57207499999998 -14.832973000000003 L -102.46603648154246 -14.571918368359785 " stroke="#000000" stroke-width="0.35 px" style="stroke-width:0.35;stroke-miterlimit:4;stroke-dasharray:none;fill:none;fill-rule: evenodd "/>
<title>b'attachment'</title>
</g>
</svg>