<?xml version="1.0"?>
<!DOCTYPE svg PUBLIC "-//W3C//DTD SVG 1.1//EN" "http://www.w3.org/Graphics/SVG/1.1/DTD/svg11.dtd">
<svg width="203.57965989070647mm" height="65.52357510907231mm" viewBox="0 0 203.57965989070647 65.52357510907231" xmlns="http://www.w3.org/2000/svg" version="1.1">
<g id="Sketch" transform="translate(101.835540,42.001736) scale(1,-1)">
<path id="Sketch_w0000"  d="M -16.203790023424382 0.0023065724998960757 A 1.20379 1.20379 0 0 1 -15 1.2061L -15.0 39.96105712199769 L 15.0 39.96105712199769 L 15.000000000000002 1.2060965959242798 A 1.20379 1.20379 0 0 1 16.2038 0.00230657L 28.047273276280624 0.0023065724998960757 A 1.7615 1.7615 0 0 1 29.7324 1.25061L 32.39050350596191 9.978678522537276 L 28.338488 19.906202 L 31.758492 29.824207 L 30.133993 40.00585649085332 L 41.32741089284622 40.00585649085332 L 99.46104400000013 39.98636600000007 A 0.294225 0.294225 0 0 0 99.6889 39.5061Q 0.0 -82.62673778826685 -99.79719594379513 39.64276548449008 A 0.210498 0.210498 0 0 0 -99.6342 39.9864L -39.979080144107705 40.00015842516354 L -29.80155 40.00015842516354 L -31.597048 29.909708 L -28.348047 19.991701 L -32.28939062029662 9.899778997760848 L -28.555946879418574 0.34961246041148286 A 0.546162 0.546162 0 0 1 -28.0473 0.00230657L -16.203790023424382 0.0023065724998960757 " stroke="#000000" stroke-width="0.35 px" style="stroke-width:0.35;stroke-miterlimit:4;stroke-dasharray:none;fill:none;fill-rule: evenodd "/>
<title>b'visor_clip'</title>
</g>
</svg>